<svg id="visual" viewBox="0 0 900 600" width="900" height="600" xmlns="http://www.w3.org/2000/svg" xmlns:xlink="http://www.w3.org/1999/xlink" version="1.1"><path d="M0 67L37.5 72C75 77 150 87 225 104C300 121 375 145 450 137C525 129 600 89 675 91C750 93 825 137 862.5 159L900 181L900 0L862.5 0C825 0 750 0 675 0C600 0 525 0 450 0C375 0 300 0 225 0C150 0 75 0 37.5 0L0 0Z" fill="#ffffff"></path><path d="M0 109L37.5 129C75 149 150 189 225 209C300 229 375 229 450 212C525 195 600 161 675 163C750 165 825 203 862.5 222L900 241L900 179L862.5 157C825 135 750 91 675 89C600 87 525 127 450 135C375 143 300 119 225 102C150 85 75 75 37.5 70L0 65Z" fill="#ffffff"></path><path d="M0 463L37.5 454C75 445 150 427 225 418C300 409 375 409 450 391C525 373 600 337 675 325C750 313 825 325 862.5 331L900 337L900 239L862.5 220C825 201 750 163 675 161C600 159 525 193 450 210C375 227 300 227 225 207C150 187 75 147 37.5 127L0 107Z" fill="#f9f9f9"></path><path d="M0 601L37.5 601C75 601 150 601 225 601C300 601 375 601 450 601C525 601 600 601 675 601C750 601 825 601 862.5 601L900 601L900 335L862.5 329C825 323 750 311 675 323C600 335 525 371 450 389C375 407 300 407 225 416C150 425 75 443 37.5 452L0 461Z" fill="#eeeeee"></path></svg>